<svg xmlns="http://www.w3.org/2000/svg" width="29" height="20" fill="none"><path fill="#fff" d="M26.872 0H2.128C.955 0 0 .973 0 2.17v15.66C0 19.027.955 20 2.128 20h24.744C28.045 20 29 19.027 29 17.83V2.17C29 .973 28.045 0 26.872 0M8.92 13.022h2.875a.63.63 0 0 1 .624.637.63.63 0 0 1-.624.636H8.92a.63.63 0 0 1-.625-.636.63.63 0 0 1 .625-.637M2.7 6.637A.63.63 0 0 1 3.325 6h3.741a.63.63 0 0 1 .625.637v2.757a.63.63 0 0 1-.625.637h-3.74a.63.63 0 0 1-.625-.637zm.624 6.385H6.2a.63.63 0 0 1 .624.637.63.63 0 0 1-.624.636H3.325a.63.63 0 0 1-.624-.636.63.63 0 0 1 .624-.637m10.263 4.105H3.325a.63.63 0 0 1-.624-.637.63.63 0 0 1 .624-.637h10.263a.63.63 0 0 1 .625.637.63.63 0 0 1-.625.637m3.803-2.831h-2.875a.63.63 0 0 1-.624-.637.63.63 0 0 1 .624-.637h2.875a.63.63 0 0 1 .625.637.63.63 0 0 1-.625.636m5.596 0h-2.875a.63.63 0 0 1-.625-.637.63.63 0 0 1 .625-.637h2.875a.63.63 0 0 1 .624.637.63.63 0 0 1-.624.636m2.688-9.3h-6.78a.63.63 0 0 1-.625-.637.63.63 0 0 1 .625-.637h6.78a.63.63 0 0 1 .624.637.63.63 0 0 1-.624.637"/></svg>